<svg xmlns="http://www.w3.org/2000/svg"  viewBox="0 0 24 24" width="96px" height="96px"><path d="M 4 4 C 3.0833335 4 2.268559 4.3797556 1.7519531 4.9609375 C 1.2353472 5.5421194 1 6.2777779 1 7 C 1 7.7222221 1.2353472 8.4578806 1.7519531 9.0390625 C 2.268559 9.6202444 3.0833335 10 4 10 C 4.9166665 10 5.731441 9.6202444 6.2480469 9.0390625 C 6.7646528 8.4578806 7 7.7222221 7 7 C 7 6.2777779 6.7646528 5.5421194 6.2480469 4.9609375 C 5.731441 4.3797556 4.9166665 4 4 4 z M 12 4 A 1.0001 1.0001 0 0 0 11.1875 4.4199219 L 11.185547 4.4179688 L 1.1855469 18.417969 A 1.0001 1.0001 0 0 0 2 20 L 8.75 20 A 1.0001 1.0001 0 0 0 9.5605469 19.585938 L 11 17.59375 L 11 19 A 1.0001 1.0001 0 0 0 12 20 L 19 20 C 21.749516 20 24 17.749516 24 15 C 24 13.266416 23.051472 11.80602 21.701172 10.908203 C 22.489232 10.176056 23 9.1519924 23 8 C 23 5.8026661 21.197334 4 19 4 L 12 4 z M 4 6 C 4.4166663 6 4.6018927 6.1202444 4.7519531 6.2890625 C 4.9020136 6.4578806 5 6.7222221 5 7 C 5 7.2777779 4.9020136 7.5421194 4.7519531 7.7109375 C 4.6018927 7.8797556 4.4166663 8 4 8 C 3.5833337 8 3.3981073 7.8797556 3.2480469 7.7109375 C 3.0979864 7.5421194 3 7.2777779 3 7 C 3 6.7222221 3.0979864 6.4578806 3.2480469 6.2890625 C 3.3981073 6.1202444 3.5833337 6 4 6 z M 13 6 L 16.779297 6 C 16.300231 6.5316399 16 7.2279156 16 8 C 16 9.657 17.343 11 19 11 C 16.791 11 15 12.791 15 15 C 15 16.201883 15.541629 17.266738 16.380859 18 L 13 18 L 13 6 z M 19 6 C 20.116666 6 21 6.8833339 21 8 C 21 9.1166661 20.116666 10 19 10 L 19 6 z M 11 8.1230469 L 11 14.175781 L 8.2382812 18 L 3.9453125 18 L 11 8.1230469 z M 19 12 C 20.668484 12 22 13.331516 22 15 C 22 16.668484 20.668484 18 19 18 L 19 12 z"/></svg>